<svg width="500" height="500" viewBox="0 0 500 500" fill="none" xmlns="http://www.w3.org/2000/svg">
<rect width="500" height="500" fill="#E9EEF1"/>
<rect x="117" y="117" width="267" height="211" rx="15" stroke="#82868B" stroke-width="18"/>
<circle cx="174" cy="177" r="28.5" fill="#82868B" stroke="#82868B"/>
<path d="M217.498 247.154L217.851 247.485L218.194 247.143L293.701 171.705L356.5 233.948V301.5H146.5V271.088L193.235 224.397L217.498 247.154Z" fill="#82868B" stroke="#82868B"/>
<path d="M200.188 381H195.058L186.478 368.01V381H181.348V359.94H186.478L195.058 372.99V359.94H200.188V381ZM210.697 381.24C209.057 381.24 207.577 380.89 206.257 380.19C204.957 379.49 203.927 378.49 203.167 377.19C202.427 375.89 202.057 374.37 202.057 372.63C202.057 370.91 202.437 369.4 203.197 368.1C203.957 366.78 204.997 365.77 206.317 365.07C207.637 364.37 209.117 364.02 210.757 364.02C212.397 364.02 213.877 364.37 215.197 365.07C216.517 365.77 217.557 366.78 218.317 368.1C219.077 369.4 219.457 370.91 219.457 372.63C219.457 374.35 219.067 375.87 218.287 377.19C217.527 378.49 216.477 379.49 215.137 380.19C213.817 380.89 212.337 381.24 210.697 381.24ZM210.697 376.8C211.677 376.8 212.507 376.44 213.187 375.72C213.887 375 214.237 373.97 214.237 372.63C214.237 371.29 213.897 370.26 213.217 369.54C212.557 368.82 211.737 368.46 210.757 368.46C209.757 368.46 208.927 368.82 208.267 369.54C207.607 370.24 207.277 371.27 207.277 372.63C207.277 373.97 207.597 375 208.237 375.72C208.897 376.44 209.717 376.8 210.697 376.8ZM232.006 359.94V381H226.876V359.94H232.006ZM256.254 364.08C258.334 364.08 259.984 364.71 261.204 365.97C262.444 367.23 263.064 368.98 263.064 371.22V381H257.964V371.91C257.964 370.83 257.674 370 257.094 369.42C256.534 368.82 255.754 368.52 254.754 368.52C253.754 368.52 252.964 368.82 252.384 369.42C251.824 370 251.544 370.83 251.544 371.91V381H246.444V371.91C246.444 370.83 246.154 370 245.574 369.42C245.014 368.82 244.234 368.52 243.234 368.52C242.234 368.52 241.444 368.82 240.864 369.42C240.304 370 240.024 370.83 240.024 371.91V381H234.894V364.26H240.024V366.36C240.544 365.66 241.224 365.11 242.064 364.71C242.904 364.29 243.854 364.08 244.914 364.08C246.174 364.08 247.294 364.35 248.274 364.89C249.274 365.43 250.054 366.2 250.614 367.2C251.194 366.28 251.984 365.53 252.984 364.95C253.984 364.37 255.074 364.08 256.254 364.08ZM264.802 372.6C264.802 370.88 265.122 369.37 265.762 368.07C266.422 366.77 267.312 365.77 268.432 365.07C269.552 364.37 270.802 364.02 272.182 364.02C273.362 364.02 274.392 364.26 275.272 364.74C276.172 365.22 276.862 365.85 277.342 366.63V364.26H282.472V381H277.342V378.63C276.842 379.41 276.142 380.04 275.242 380.52C274.362 381 273.332 381.24 272.152 381.24C270.792 381.24 269.552 380.89 268.432 380.19C267.312 379.47 266.422 378.46 265.762 377.16C265.122 375.84 264.802 374.32 264.802 372.6ZM277.342 372.63C277.342 371.35 276.982 370.34 276.262 369.6C275.562 368.86 274.702 368.49 273.682 368.49C272.662 368.49 271.792 368.86 271.072 369.6C270.372 370.32 270.022 371.32 270.022 372.6C270.022 373.88 270.372 374.9 271.072 375.66C271.792 376.4 272.662 376.77 273.682 376.77C274.702 376.77 275.562 376.4 276.262 375.66C276.982 374.92 277.342 373.91 277.342 372.63ZM291.714 364.02C292.894 364.02 293.924 364.26 294.804 364.74C295.704 365.22 296.394 365.85 296.874 366.63V364.26H302.004V380.97C302.004 382.51 301.694 383.9 301.074 385.14C300.474 386.4 299.544 387.4 298.284 388.14C297.044 388.88 295.494 389.25 293.634 389.25C291.154 389.25 289.144 388.66 287.604 387.48C286.064 386.32 285.184 384.74 284.964 382.74H290.034C290.194 383.38 290.574 383.88 291.174 384.24C291.774 384.62 292.514 384.81 293.394 384.81C294.454 384.81 295.294 384.5 295.914 383.88C296.554 383.28 296.874 382.31 296.874 380.97V378.6C296.374 379.38 295.684 380.02 294.804 380.52C293.924 381 292.894 381.24 291.714 381.24C290.334 381.24 289.084 380.89 287.964 380.19C286.844 379.47 285.954 378.46 285.294 377.16C284.654 375.84 284.334 374.32 284.334 372.6C284.334 370.88 284.654 369.37 285.294 368.07C285.954 366.77 286.844 365.77 287.964 365.07C289.084 364.37 290.334 364.02 291.714 364.02ZM296.874 372.63C296.874 371.35 296.514 370.34 295.794 369.6C295.094 368.86 294.234 368.49 293.214 368.49C292.194 368.49 291.324 368.86 290.604 369.6C289.904 370.32 289.554 371.32 289.554 372.6C289.554 373.88 289.904 374.9 290.604 375.66C291.324 376.4 292.194 376.77 293.214 376.77C294.234 376.77 295.094 376.4 295.794 375.66C296.514 374.92 296.874 373.91 296.874 372.63ZM320.665 372.36C320.665 372.84 320.635 373.34 320.575 373.86H308.965C309.045 374.9 309.375 375.7 309.955 376.26C310.555 376.8 311.285 377.07 312.145 377.07C313.425 377.07 314.315 376.53 314.815 375.45H320.275C319.995 376.55 319.485 377.54 318.745 378.42C318.025 379.3 317.115 379.99 316.015 380.49C314.915 380.99 313.685 381.24 312.325 381.24C310.685 381.24 309.225 380.89 307.945 380.19C306.665 379.49 305.665 378.49 304.945 377.19C304.225 375.89 303.865 374.37 303.865 372.63C303.865 370.89 304.215 369.37 304.915 368.07C305.635 366.77 306.635 365.77 307.915 365.07C309.195 364.37 310.665 364.02 312.325 364.02C313.945 364.02 315.385 364.36 316.645 365.04C317.905 365.72 318.885 366.69 319.585 367.95C320.305 369.21 320.665 370.68 320.665 372.36ZM315.415 371.01C315.415 370.13 315.115 369.43 314.515 368.91C313.915 368.39 313.165 368.13 312.265 368.13C311.405 368.13 310.675 368.38 310.075 368.88C309.495 369.38 309.135 370.09 308.995 371.01H315.415Z" fill="#82868B"/>
</svg>
